<?xml version="1.0" encoding="UTF-8"?>
<!DOCTYPE svg PUBLIC "-//W3C//DTD SVG 1.1//EN" "http://www.w3.org/Graphics/SVG/1.1/DTD/svg11.dtd">
<svg xmlns="http://www.w3.org/2000/svg" version="1.1" width="48px" height="48px" style="shape-rendering:geometricPrecision; text-rendering:geometricPrecision; image-rendering:optimizeQuality; fill-rule:evenodd; clip-rule:evenodd" xmlns:xlink="http://www.w3.org/1999/xlink">
<g><path style="opacity:0.994" fill="#2094f0" d="M 21.5,3.5 C 22.8333,3.5 24.1667,3.5 25.5,3.5C 25.3259,5.86105 24.9926,8.19438 24.5,10.5C 29.1785,10.3342 33.8452,10.5008 38.5,11C 40.3137,13.4815 40.9804,16.3148 40.5,19.5C 41.5,19.5 42.5,19.5 43.5,19.5C 43.5,22.1667 43.5,24.8333 43.5,27.5C 42.5,27.5 41.5,27.5 40.5,27.5C 40.9804,30.6852 40.3137,33.5185 38.5,36C 30.1667,36.3333 21.8333,36.6667 13.5,37C 11.3333,39.1667 9.16667,41.3333 7,43.5C 6.50065,38.1771 6.33398,32.8437 6.5,27.5C 5.5,27.5 4.5,27.5 3.5,27.5C 3.5,24.8333 3.5,22.1667 3.5,19.5C 4.5,19.5 5.5,19.5 6.5,19.5C 6.01964,16.3148 6.68631,13.4815 8.5,11C 13.1548,10.5008 17.8215,10.3342 22.5,10.5C 22.0074,8.19438 21.6741,5.86105 21.5,3.5 Z"/></g>
<g><path style="opacity:1" fill="#eef6fe" d="M 15.5,18.5 C 19.1612,18.3501 20.1612,19.8501 18.5,23C 14.7071,23.4866 13.7071,21.9866 15.5,18.5 Z"/></g>
<g><path style="opacity:1" fill="#edf6fe" d="M 28.5,18.5 C 32.1612,18.3501 33.1612,19.8501 31.5,23C 27.7071,23.4866 26.7071,21.9866 28.5,18.5 Z"/></g>
<g><path style="opacity:1" fill="#eff7fe" d="M 19.5,28.5 C 21.9664,27.3659 24.633,27.1993 27.5,28C 24.9869,31.132 22.3202,31.2987 19.5,28.5 Z"/></g>
</svg>
