<?xml version="1.0" encoding="UTF-8"?>
<!DOCTYPE svg PUBLIC "-//W3C//DTD SVG 1.1//EN" "http://www.w3.org/Graphics/SVG/1.1/DTD/svg11.dtd">
<svg xmlns="http://www.w3.org/2000/svg" version="1.1" width="50px" height="50px" style="shape-rendering:geometricPrecision; text-rendering:geometricPrecision; image-rendering:optimizeQuality; fill-rule:evenodd; clip-rule:evenodd" xmlns:xlink="http://www.w3.org/1999/xlink">
<g><path style="opacity:0.635" fill="#000000" d="M 17.5,1.5 C 26.2889,0.189643 34.2889,2.02298 41.5,7C 49.2943,17.0352 49.4609,27.2019 42,37.5C 34.4989,43.2983 26.1656,44.965 17,42.5C 12.9025,46.2987 8.06918,47.9653 2.5,47.5C 2.85055,43.6311 4.18389,40.1311 6.5,37C -3.24208,20.8177 0.424591,8.9844 17.5,1.5 Z M 18.5,4.5 C 30.4928,2.41126 38.9928,6.74459 44,17.5C 45.6569,32.0137 39.1569,39.6804 24.5,40.5C 21.9582,40.4136 19.4582,40.0803 17,39.5C 13.6121,40.777 10.4454,42.4436 7.5,44.5C 7.16667,44.3333 6.83333,44.1667 6.5,44C 8.04918,41.9017 9.04918,39.5684 9.5,37C 0.401054,22.5828 3.40105,11.7494 18.5,4.5 Z"/></g>
<g><path style="opacity:0.66" fill="#000000" d="M 14.5,11.5 C 16.1238,11.3601 17.2904,12.0267 18,13.5C 19.3082,17.7595 20.8082,21.9262 22.5,26C 21.9747,26.6924 21.3081,27.1924 20.5,27.5C 19.2557,25.5626 17.7557,23.8959 16,22.5C 14.1327,23.3767 12.966,24.8767 12.5,27C 11.2752,27.5628 10.2752,27.2295 9.5,26C 11.4649,21.272 13.1316,16.4387 14.5,11.5 Z"/></g>
<g><path style="opacity:0.695" fill="#000000" d="M 31.5,18.5 C 33.0481,18.8212 33.7148,19.8212 33.5,21.5C 35.604,21.2011 37.604,21.5344 39.5,22.5C 37.9246,25.0571 36.2579,27.5571 34.5,30C 36.4386,30.9078 37.4386,32.4078 37.5,34.5C 35.4176,34.528 33.5843,33.8613 32,32.5C 30.0876,33.6919 28.0876,34.6919 26,35.5C 25.3076,34.9747 24.8076,34.3081 24.5,33.5C 25.9358,32.0663 27.6025,30.8996 29.5,30C 27.4848,28.4447 27.1515,26.6114 28.5,24.5C 29.8139,25.3128 30.9805,26.3128 32,27.5C 32.956,26.4214 33.7894,25.2547 34.5,24C 31.1182,23.8236 27.7848,23.3236 24.5,22.5C 26.7427,21.5258 29.076,21.1924 31.5,21.5C 31.5,20.5 31.5,19.5 31.5,18.5 Z"/></g>
</svg>
